<svg id="e7p0rVfkQm31" xmlns="http://www.w3.org/2000/svg" xmlns:xlink="http://www.w3.org/1999/xlink" viewBox="0 0 300 300" shape-rendering="geometricPrecision" text-rendering="geometricPrecision"><defs><linearGradient id="e7p0rVfkQm32-fill" x1="0" y1="0.5" x2="1" y2="0.5" spreadMethod="pad" gradientUnits="objectBoundingBox" gradientTransform="translate(0 0)"><stop id="e7p0rVfkQm32-fill-0" offset="0%" stop-color="#8dc190"/><stop id="e7p0rVfkQm32-fill-1" offset="100%" stop-color="#4bda4e"/></linearGradient><linearGradient id="e7p0rVfkQm33-fill" x1="0" y1="0.5" x2="1" y2="0.5" spreadMethod="pad" gradientUnits="objectBoundingBox" gradientTransform="translate(0 0)"><stop id="e7p0rVfkQm33-fill-0" offset="0%" stop-color="#8dc190"/><stop id="e7p0rVfkQm33-fill-1" offset="100%" stop-color="#4bda4e"/></linearGradient><linearGradient id="e7p0rVfkQm34-fill" x1="0" y1="0.5" x2="1" y2="0.5" spreadMethod="pad" gradientUnits="objectBoundingBox" gradientTransform="translate(0 0)"><stop id="e7p0rVfkQm34-fill-0" offset="0%" stop-color="#508553"/><stop id="e7p0rVfkQm34-fill-1" offset="100%" stop-color="#4bda4e"/></linearGradient><linearGradient id="e7p0rVfkQm318-fill" x1="0" y1="0.5" x2="1" y2="0.5" spreadMethod="pad" gradientUnits="objectBoundingBox" gradientTransform="translate(0 0)"><stop id="e7p0rVfkQm318-fill-0" offset="0%" stop-color="#fff"/><stop id="e7p0rVfkQm318-fill-1" offset="100%" stop-color="#ff3535"/></linearGradient><linearGradient id="e7p0rVfkQm319-fill" x1="0" y1="0.5" x2="1" y2="0.5" spreadMethod="pad" gradientUnits="objectBoundingBox" gradientTransform="translate(0 0)"><stop id="e7p0rVfkQm319-fill-0" offset="0%" stop-color="#f4f4f4"/><stop id="e7p0rVfkQm319-fill-1" offset="100%" stop-color="#fd2828"/></linearGradient><linearGradient id="e7p0rVfkQm320-fill" x1="0" y1="0.5" x2="1" y2="0.5" spreadMethod="pad" gradientUnits="objectBoundingBox" gradientTransform="translate(0 0)"><stop id="e7p0rVfkQm320-fill-0" offset="0%" stop-color="#94c396"/><stop id="e7p0rVfkQm320-fill-1" offset="100%" stop-color="#4bda4e"/></linearGradient></defs><rect width="114.838695" height="98.730101" rx="0" ry="0" transform="matrix(.764705 0 0 0.510093 112.143671 97.236463)" fill="url(#e7p0rVfkQm32-fill)" stroke="#000"/><path d="M132.409265,98.198358h-18.187124l9.87301-15.588714l8.314114,15.588714" transform="translate(3.104385-1.186423)" fill="url(#e7p0rVfkQm33-fill)" stroke="#3f5787" stroke-width="0.6"/><path d="M171.901305,98.198358l11.431907-15.588714l9.353377,15.588714h-20.785284Z" transform="matrix(.920995 0 0 1 14.402134-1.186423)" fill="url(#e7p0rVfkQm34-fill)" stroke="#3f5787" stroke-width="0.6"/><path d="M199.961396,122.621316l12.990846-8.833746-12.990846-4.157056v12.990802Z" transform="translate(0 6.495401)" stroke="#3f5787" stroke-width="0.6"/><path d="M205.15776,126.258741l-5.196364,6.235585v-9.873011l5.196364,3.637426Z" transform="translate(0 6.755219)" stroke="#3f5787" stroke-width="0.6"/><path d="M118.89883,98.198358l5.196321-7.794357l4.157057,7.794357h-9.353378Z" transform="translate(2.844569-1.186423)" fill="#fb7777" stroke="#3f5787" stroke-width="0.6"/><path d="M178.136891,98.198358l5.196322-7.794357l5.19632,7.794357h-10.392642Z" transform="translate(0-1.186423)" fill="#fb7777" stroke="#3f5787" stroke-width="0.6"/><path d="M106.947335,109.630514L93.956489,113.78757l12.990846,8.833746v-12.990802Z" transform="translate(5.262036 6.495401)" stroke="#3f5787" stroke-width="0.6"/><path d="M106.947335,132.494327l-6.495423-6.235585l6.495422-3.637426.000001,9.873011Z" transform="translate(5.262036 6.755218)" stroke="#3f5787" stroke-width="0.6"/><path d="" fill="none" stroke="#3f5787" stroke-width="0.6"/><path d="M199.961396,98.198358l18.055548-15.588714-15.457366,27.02087-2.598182-11.432156Z" transform="matrix(1.490838 0.355714-.332017 1.391519-65.236579-109.38769)" stroke="#3f5787" stroke-width="0.6"/><path d="M199.961396,98.198358l18.055548-15.588714-15.457366,27.02087-2.598182-11.432156Z" transform="matrix(-2.00581 0.647636 0.463189 1.434554 467.631509-172.433699)" stroke="#3f5787" stroke-width="0.6"/><rect width="9.093562" height="3.41152" rx="0" ry="0" transform="matrix(.971428-.314761 0.308242 0.951308 126.420088 120.261571)" stroke-width="0"/><rect width="9.093562" height="3.41152" rx="0" ry="0" transform="matrix(.969927 0.319357-.312743 0.949838 179.456631 118.296712)" stroke-width="0"/><rect width="15.012138" height="3.053853" rx="0" ry="0" transform="matrix(.965158 0.261669-.261669 0.965158 135.510919 117.505674)" stroke-width="0"/><rect width="15.012138" height="3.053853" rx="0" ry="0" transform="matrix(.979365-.202098 0.202098 0.979365 165.062605 121.390498)" stroke-width="0"/><ellipse rx="11.26417" ry="2.598161" transform="translate(138.735831 131.714878)" fill="url(#e7p0rVfkQm318-fill)" stroke="#000" stroke-width="2"/><ellipse rx="11.073594" ry="2.468253" transform="translate(176.136199 131.844787)" fill="url(#e7p0rVfkQm319-fill)" stroke="#0b0909" stroke-width="2"/><path d="M200.269871,147.597996h.000001q-.308476,4.804008-.308476,2.402004l-21.824505,22.335841-12.765696,41.693003l7.042596,6.302431-16.361253,10.659551-13.297078-10.659551l6.445441-6.302431-13.947067-41.693002-23.04446-24.737845" transform="translate(-.308476 0)" fill="url(#e7p0rVfkQm320-fill)" stroke="#3f5787" stroke-width="0.6"/><path d="" fill="none" stroke="#3f5787" stroke-width="0.6"/><ellipse rx="3.425816" ry="1.92387" transform="matrix(1.233128 0 0 1 151.380616 221.021683)" fill="#222" stroke-width="0"/><ellipse rx="4.411491" ry="1.92387" transform="translate(162.772227 221.021683)" fill="#0c0c0c" stroke-width="0"/><path d="M156.052534,155.798556v40.868823" transform="translate(0 0.000001)" stroke="#0c0c0c" stroke-width="0.6"/><path d="M172.105315,168.038409c-7.802961,4.056776-12.776587,18.187012-9.333088,28.628971" transform="translate(0 0.000001)" opacity="0.51" fill="none" stroke="#0e0e0e" stroke-width="0.6"/><path d="M138.735831,168.03841c7.425394,3.656792,12.932049,17.63811,10.156594,28.62897" opacity="0.53" fill="none" stroke="#0a0b0b" stroke-width="0.6"/><path d="" fill="none" stroke="#3f5787" stroke-width="0.6"/></svg>
